<?xml version="1.0" encoding="utf-8"?>
<!-- Generator: Adobe Illustrator 15.0.0, SVG Export Plug-In . SVG Version: 6.00 Build 0)  -->
<!DOCTYPE svg PUBLIC "-//W3C//DTD SVG 1.1//EN" "http://www.w3.org/Graphics/SVG/1.1/DTD/svg11.dtd">
<svg version="1.1" id="图层_1" xmlns="http://www.w3.org/2000/svg" xmlns:xlink="http://www.w3.org/1999/xlink" x="0px" y="0px"
	 width="200px" height="200px" viewBox="0 0 200 200" enable-background="new 0 0 200 200" xml:space="preserve">
<linearGradient id="Shape_1_" gradientUnits="userSpaceOnUse" x1="-392.521" y1="4.1646" x2="-392.0605" y2="4.5428" gradientTransform="matrix(147.7263 0 0 198.7057 58043.5078 -771.4204)">
	<stop  offset="0" style="stop-color:#4285EB"/>
	<stop  offset="1" style="stop-color:#2EC7FF"/>
</linearGradient>
<path id="Shape_5_" fill="url(#Shape_1_)" d="M90.932,3.538L3.524,90.874c-4.699,4.695-4.699,12.278,0,16.976l87.408,87.336
	c4.699,4.694,12.289,4.694,16.988,0l36.648-36.619c4.209-4.205,4.209-11.022,0-15.229c-4.207-4.206-11.031-4.205-15.239,0
	L101.546,171.1c-1.17,1.168-2.945,1.168-4.115,0L27.63,101.354c-1.17-1.168-1.17-2.941,0-4.11l69.801-69.744
	c1.17-1.168,2.945-1.168,4.115,0l27.783,27.761c4.208,4.205,11.032,4.205,15.239,0c4.209-4.205,4.209-11.022,0-15.228L107.924,3.417
	C103.206-1.177,95.613-1.14,90.932,3.538z"/>
<linearGradient id="Shape_2_" gradientUnits="userSpaceOnUse" x1="-392.3193" y1="3.8701" x2="-392.4753" y2="4.9547" gradientTransform="matrix(147.7263 0 0 198.7057 58043.5078 -771.4204)">
	<stop  offset="0" style="stop-color:#29CDFF"/>
	<stop  offset="0.3786" style="stop-color:#148EFF"/>
	<stop  offset="1" style="stop-color:#0A60FF"/>
</linearGradient>
<path id="Shape_4_" fill="url(#Shape_2_)" d="M90.932,3.538L3.524,90.874c-4.699,4.695-4.699,12.278,0,16.976l87.408,87.336
	c4.699,4.694,12.289,4.694,16.988,0l36.648-36.619c4.209-4.205,4.209-11.022,0-15.229c-4.207-4.206-11.031-4.205-15.239,0
	L101.546,171.1c-1.17,1.168-2.945,1.168-4.115,0L27.63,101.354c-1.17-1.168-1.17-2.941,0-4.11l69.801-69.744
	c2.913-2.511,7.665-7.596,14.641-8.785c5.188-0.884,10.857,1.062,17.01,5.837c-4.113-4.11-11.166-11.155-21.158-21.134
	C103.206-1.177,95.613-1.14,90.932,3.538z"/>
<linearGradient id="Shape_6_" gradientUnits="userSpaceOnUse" x1="-386.874" y1="8.8145" x2="-387.4035" y2="10.1174" gradientTransform="matrix(49.2049 0 0 77.4363 19219.377 -631.9742)">
	<stop  offset="0" style="stop-color:#FA816E"/>
	<stop  offset="0.4147" style="stop-color:#F74A5C"/>
	<stop  offset="1" style="stop-color:#F51D2C"/>
</linearGradient>
<path id="Shape_3_" fill="url(#Shape_6_)" d="M153.029,135.215c4.209,4.205,11.031,4.205,15.24,0l27.035-27.012
	c4.698-4.695,4.698-12.279,0-16.974l-27.27-27.15c-4.219-4.2-11.045-4.194-15.256,0.013c-4.209,4.205-4.209,11.023,0,15.229
	l18.418,18.402c1.17,1.169,1.17,2.942,0,4.111l-18.168,18.152C148.82,124.193,148.82,131.01,153.029,135.215z"/>
<g>
	<path id="path4544_1_" fill="#020000" d="M83.269,132.02c-4.278-0.929-7.491-3.437-8.61-6.721c-0.78-2.288-0.669-6,0.329-11.019
		c0.479-2.409,0.872-5.285,0.872-6.392c0-3.674-1.691-5.668-5.04-5.945l-1.932-0.159V99.42v-2.365l1.83-0.248
		c2.671-0.361,3.701-1.017,4.522-2.875c0.604-1.365,0.681-2.044,0.5-4.421c-0.117-1.543-0.529-4.297-0.914-6.118
		c-0.978-4.628-0.937-8.385,0.115-10.646c1.55-3.329,5.374-5.785,9.816-6.308l1.91-0.225v2.488v2.488h-1.285
		c-1.751,0-4.2,1.248-4.826,2.459c-0.602,1.162-0.646,2.831-0.157,5.734c0.774,4.588,1.035,8.991,0.668,11.287
		c-0.419,2.627-1.952,5.729-3.636,7.36l-1.166,1.131l1.596,1.959c1.967,2.416,2.732,4.101,3.205,7.06
		c0.374,2.34,0.083,7.196-0.663,11.081c-1.042,5.421,0.16,7.563,4.607,8.208l1.656,0.241v2.419
		C86.668,132.889,86.836,132.795,83.269,132.02L83.269,132.02z"/>
	<path id="path4546_1_" fill="#020000" d="M112.161,130.104v-2.401l2.024-0.418c2.236-0.462,4.008-1.843,4.406-3.435
		c0.127-0.502-0.111-3.127-0.527-5.834c-1.354-8.824-0.604-13.377,2.822-17.095l1.465-1.589l-1.098-1.25
		c-3.932-4.478-4.613-8.451-3.117-18.153c0.754-4.889,0.756-4.936,0.086-6.102c-0.787-1.371-3.244-2.742-4.916-2.742h-1.146v-2.44
		c0-2.778-0.058-2.741,3.209-2.049c3.916,0.831,6.726,2.819,8.18,5.796c0.837,1.707,0.962,2.371,0.938,4.952
		c-0.014,1.638-0.354,4.626-0.752,6.64c-1.48,7.476-1.35,9.464,0.756,11.397c0.979,0.897,1.621,1.159,3.332,1.353l2.119,0.239v2.396
		v2.396h-1.656c-2.127,0.002-3.887,0.898-4.783,2.439c-0.939,1.619-0.881,5.146,0.172,10.284c0.896,4.37,1.041,8.358,0.385,10.603
		c-0.692,2.366-3.774,5.234-6.668,6.203c-1.246,0.418-2.934,0.861-3.748,0.984l-1.481,0.226v-2.401H112.161z"/>
	<path id="path4548_1_" fill="#020000" d="M91.914,126.167c-1.01-1.283-0.863-3.495,0.377-5.664
		c0.917-1.604,4.751-6.867,7.521-10.317l1.118-1.394l-1.782-5.164c-1.998-5.792-1.986-5.904,0.648-6.298l1.451-0.216l1.622,3.311
		c0.893,1.821,1.748,3.313,1.904,3.313s1.754-1.735,3.551-3.856c3.123-3.682,3.318-3.845,4.375-3.648
		c0.637,0.117,1.203,0.046,1.338-0.172c0.314-0.509,1.217,0.244,1.217,1.016c0,0.316-0.449,1.121-0.998,1.787
		c-2.242,2.723-7.021,9.162-7.021,9.459c0,0.175,0.966,2.424,2.144,4.998l2.142,4.682l-0.65,0.973
		c-0.357,0.535-0.654,1.113-0.66,1.283c-0.004,0.172-0.273,0.479-0.598,0.684c-0.822,0.519-1.43-0.113-3.943-4.104
		c-1.15-1.826-2.205-3.326-2.344-3.33c-0.311-0.011-3.747,5.071-6.404,9.469c-2.343,3.877-1.916,3.379-3.227,3.756
		C92.748,127,92.512,126.926,91.914,126.167L91.914,126.167z"/>
	<path id="path4550_1_" fill="#020000" d="M92.154,101.868c-2.125-3.803-5.947-9.317-7.489-10.81
		c-0.783-0.759-1.424-1.557-1.424-1.774c0-0.595,1.598-1.206,3.153-1.206c1.679,0,3.456,1.461,5.041,4.144
		c0.575,0.973,1.143,1.772,1.261,1.776c0.118,0.004,0.799-1.632,1.512-3.635c1.529-4.289,5.558-12.627,7.14-14.774
		c1.355-1.842,3.389-2.832,5.832-2.843c3.197-0.014,3.205,0.129,0.203,3.258c-4.582,4.776-6.684,8.707-11.119,20.791
		c-1.231,3.355-2.362,6.402-2.512,6.771C93.525,104.125,93.26,103.843,92.154,101.868z"/>
</g>
</svg>
